<?xml version="1.0" encoding="UTF-8"?>
<svg xmlns="http://www.w3.org/2000/svg" version="1.1" width="300" height="300" viewBox="0 0 300 300"><rect x="0" y="0" width="300" height="300" fill="#ffffff"/><g transform="scale(8.571)"><g transform="translate(1,1)"><path fill-rule="evenodd" d="M9 0L9 1L10 1L10 0ZM11 0L11 2L10 2L10 3L11 3L11 2L12 2L12 5L13 5L13 6L12 6L12 7L13 7L13 6L14 6L14 8L11 8L11 10L5 10L5 12L4 12L4 15L3 15L3 16L4 16L4 15L5 15L5 12L6 12L6 13L7 13L7 12L8 12L8 11L11 11L11 12L9 12L9 15L10 15L10 16L9 16L9 18L10 18L10 17L11 17L11 19L10 19L10 20L11 20L11 19L12 19L12 21L11 21L11 22L10 22L10 21L9 21L9 20L8 20L8 19L7 19L7 18L8 18L8 16L6 16L6 17L5 17L5 18L6 18L6 19L7 19L7 20L6 20L6 21L7 21L7 22L6 22L6 23L8 23L8 27L9 27L9 28L8 28L8 30L10 30L10 31L9 31L9 32L11 32L11 33L14 33L14 32L15 32L15 31L16 31L16 32L17 32L17 33L18 33L18 31L16 31L16 30L21 30L21 33L24 33L24 32L23 32L23 31L22 31L22 30L24 30L24 31L26 31L26 32L25 32L25 33L27 33L27 31L26 31L26 30L27 30L27 29L30 29L30 30L29 30L29 31L28 31L28 33L29 33L29 32L30 32L30 30L31 30L31 31L33 31L33 30L32 30L32 29L33 29L33 28L31 28L31 29L30 29L30 27L29 27L29 26L32 26L32 27L33 27L33 26L32 26L32 25L33 25L33 23L32 23L32 22L31 22L31 21L30 21L30 20L29 20L29 22L28 22L28 17L29 17L29 18L30 18L30 19L31 19L31 20L32 20L32 19L31 19L31 17L30 17L30 15L29 15L29 14L33 14L33 11L32 11L32 10L31 10L31 8L29 8L29 10L28 10L28 9L27 9L27 10L24 10L24 9L25 9L25 8L24 8L24 7L25 7L25 5L24 5L24 4L25 4L25 3L24 3L24 2L25 2L25 1L23 1L23 0L21 0L21 2L20 2L20 0L18 0L18 1L19 1L19 2L20 2L20 3L17 3L17 4L18 4L18 5L17 5L17 6L16 6L16 5L15 5L15 6L14 6L14 5L13 5L13 2L12 2L12 1L14 1L14 2L15 2L15 3L14 3L14 4L15 4L15 3L16 3L16 2L17 2L17 1L15 1L15 0ZM8 2L8 4L9 4L9 5L10 5L10 7L9 7L9 6L8 6L8 7L9 7L9 9L10 9L10 7L11 7L11 4L9 4L9 2ZM21 2L21 3L22 3L22 6L21 6L21 7L20 7L20 4L19 4L19 5L18 5L18 6L17 6L17 8L16 8L16 6L15 6L15 8L14 8L14 9L12 9L12 10L14 10L14 12L16 12L16 13L15 13L15 14L14 14L14 13L12 13L12 12L13 12L13 11L12 11L12 12L11 12L11 13L10 13L10 14L11 14L11 17L12 17L12 18L13 18L13 17L14 17L14 19L13 19L13 20L14 20L14 22L13 22L13 23L10 23L10 22L8 22L8 23L9 23L9 27L10 27L10 25L11 25L11 27L12 27L12 28L11 28L11 29L14 29L14 31L15 31L15 30L16 30L16 28L17 28L17 29L19 29L19 28L21 28L21 27L23 27L23 26L24 26L24 25L23 25L23 24L21 24L21 25L20 25L20 21L21 21L21 23L22 23L22 21L23 21L23 22L24 22L24 23L25 23L25 24L26 24L26 23L25 23L25 22L26 22L26 20L27 20L27 18L26 18L26 17L27 17L27 16L28 16L28 15L27 15L27 14L29 14L29 13L27 13L27 12L26 12L26 11L24 11L24 10L22 10L22 9L23 9L23 7L24 7L24 5L23 5L23 4L24 4L24 3L22 3L22 2ZM18 6L18 7L19 7L19 8L17 8L17 9L16 9L16 10L15 10L15 11L16 11L16 12L17 12L17 13L18 13L18 12L17 12L17 11L16 11L16 10L17 10L17 9L18 9L18 10L19 10L19 12L20 12L20 13L19 13L19 14L15 14L15 15L16 15L16 16L14 16L14 15L13 15L13 14L12 14L12 13L11 13L11 14L12 14L12 15L13 15L13 16L12 16L12 17L13 17L13 16L14 16L14 17L17 17L17 16L18 16L18 19L17 19L17 18L15 18L15 19L16 19L16 20L15 20L15 21L16 21L16 22L15 22L15 23L13 23L13 25L12 25L12 24L11 24L11 25L12 25L12 26L14 26L14 25L15 25L15 24L16 24L16 22L18 22L18 23L19 23L19 21L20 21L20 20L22 20L22 19L19 19L19 17L20 17L20 18L21 18L21 17L20 17L20 15L21 15L21 16L22 16L22 18L23 18L23 17L26 17L26 16L24 16L24 15L25 15L25 14L26 14L26 13L25 13L25 12L21 12L21 11L22 11L22 10L21 10L21 9L20 9L20 7L19 7L19 6ZM22 6L22 7L21 7L21 8L22 8L22 7L23 7L23 6ZM3 8L3 9L1 9L1 10L0 10L0 11L1 11L1 12L0 12L0 13L2 13L2 11L3 11L3 10L4 10L4 9L5 9L5 8ZM6 8L6 9L8 9L8 8ZM19 9L19 10L20 10L20 11L21 11L21 10L20 10L20 9ZM1 10L1 11L2 11L2 10ZM30 10L30 11L29 11L29 12L30 12L30 13L32 13L32 11L31 11L31 10ZM6 11L6 12L7 12L7 11ZM21 13L21 15L23 15L23 14L22 14L22 13ZM24 13L24 14L25 14L25 13ZM0 14L0 15L1 15L1 16L0 16L0 17L1 17L1 18L0 18L0 20L1 20L1 21L0 21L0 25L4 25L4 24L5 24L5 23L4 23L4 21L5 21L5 20L4 20L4 21L2 21L2 20L3 20L3 19L4 19L4 17L3 17L3 18L2 18L2 17L1 17L1 16L2 16L2 14ZM6 14L6 15L7 15L7 14ZM19 14L19 15L20 15L20 14ZM6 17L6 18L7 18L7 17ZM32 17L32 18L33 18L33 17ZM1 18L1 20L2 20L2 18ZM24 18L24 19L23 19L23 20L24 20L24 19L25 19L25 20L26 20L26 19L25 19L25 18ZM18 19L18 20L16 20L16 21L19 21L19 19ZM7 20L7 21L8 21L8 20ZM24 21L24 22L25 22L25 21ZM1 22L1 24L4 24L4 23L2 23L2 22ZM30 22L30 23L29 23L29 24L30 24L30 25L32 25L32 23L31 23L31 22ZM6 24L6 25L7 25L7 24ZM17 24L17 26L19 26L19 25L18 25L18 24ZM21 25L21 26L20 26L20 27L21 27L21 26L22 26L22 25ZM25 25L25 28L28 28L28 25ZM15 26L15 27L14 27L14 29L15 29L15 27L16 27L16 26ZM26 26L26 27L27 27L27 26ZM23 28L23 29L24 29L24 30L25 30L25 29L24 29L24 28ZM12 30L12 32L13 32L13 30ZM19 31L19 32L20 32L20 31ZM0 0L0 7L7 7L7 0ZM1 1L1 6L6 6L6 1ZM2 2L2 5L5 5L5 2ZM26 0L26 7L33 7L33 0ZM27 1L27 6L32 6L32 1ZM28 2L28 5L31 5L31 2ZM0 26L0 33L7 33L7 26ZM1 27L1 32L6 32L6 27ZM2 28L2 31L5 31L5 28Z" fill="#000000"/></g></g></svg>
